<svg width="869" height="861" viewBox="0 0 869 861" fill="none" xmlns="http://www.w3.org/2000/svg">
<path d="M774.285 215.292C797.995 212.709 817.113 221.145 828.185 243.149C876.598 339.346 879.574 450.688 849.572 552.81C816.643 661.721 742.43 753.437 642.786 808.36C564.049 850.261 474.606 867.732 385.889 858.539C352.102 854.915 326.678 848.861 294.488 839.345C284.278 836.146 273.233 832.496 263.876 827.064C226.989 806.265 239.431 747.829 281.892 745.66C296.83 744.898 323.11 756.803 338.867 760.72C489.827 798.231 646.633 739.149 728.351 605.142C784.419 513.199 796.456 400.487 755.862 299.956C747.142 278.571 730.214 257.153 746.155 233.94C753.185 223.589 762.258 217.624 774.285 215.292Z" fill="#4790FE"/>
<path d="M402.647 0.0586818C463.79 -0.750071 518.596 6.69177 576.004 29.1715C588.215 33.9369 598.839 37.6143 610.177 44.406C649.437 67.9269 629.375 130.835 584.601 128.767C566.672 127.94 543.137 114.22 524.677 108.11C380.46 60.3666 230.668 113.874 145.928 239.186C108.591 293.308 88.0641 357.248 86.9203 422.99C86.6857 432.987 86.4869 453.041 88.2719 462.277C90.6803 483.038 92.9949 503.034 99.0225 523.194C103.73 538.941 114.762 558.201 116.102 573.818C117.001 584.262 112.999 595.024 106.06 602.805C98.2093 611.61 85.1196 616.031 73.4641 616.42C62.8319 616.773 52.3561 613.02 44.702 605.547C17.8255 579.305 1.70852 486.879 0.56912 450.199C-0.257506 423.604 -0.565797 396.837 2.36761 370.349C12.486 278.985 55.0728 194.495 117.72 127.971C192.246 49.6183 294.571 3.6802 402.647 0.0586818Z" fill="#4790FE"/>
<path d="M411.239 175.252C471.525 169.667 542.686 187.975 592.074 222.754C612.12 236.871 658.697 277.606 662.958 304.27C664.747 315.475 661.74 327.228 655.071 336.451C648.219 345.935 637.822 352.242 626.244 353.937C599.401 357.796 588.62 339.608 573.135 323.077C498.053 242.924 362.426 240.618 295.42 332.554C259.444 381.917 257.122 422.61 265.212 479.658C268.13 486.682 270.766 496.526 273.53 504.059C280.237 521.807 289.372 538.541 300.677 553.78C304.582 558.952 310.266 566.005 314.87 570.605C326.675 582.05 340.08 593.228 341.224 611.036C342.781 635.272 323.742 654.907 299.745 655.591C284.475 656.027 273.653 651.223 263.088 641.286C206.888 588.429 175.631 518.342 171.587 441.412C168.262 372.997 192.436 306.094 238.722 255.605C283.628 207.457 345.487 178.646 411.239 175.252Z" fill="#4790FE"/>
<path d="M429.633 345.745C483.205 340.689 530.711 380.07 535.671 433.651C540.631 487.232 501.163 534.667 447.573 539.53C394.121 544.381 346.834 505.036 341.885 451.591C336.937 398.146 376.199 350.789 429.633 345.745Z" fill="#4790FE"/>
<path d="M739.008 21.6939C781.166 14.8776 820.859 43.5593 827.624 85.7262C834.389 127.895 805.658 167.551 763.482 174.265C721.38 180.965 681.807 152.296 675.054 110.203C668.302 68.1079 696.921 28.4991 739.008 21.6939Z" fill="#4790FE"/>
<path d="M108.513 662.981C150.224 655.073 190.427 682.548 198.209 724.284C205.99 766.017 178.392 806.135 136.634 813.792C95.0548 821.414 55.1466 793.959 47.3987 752.404C39.6485 710.848 66.9808 670.857 108.513 662.981Z" fill="#4790FE"/>
</svg>
