<svg width="869" height="862" viewBox="0 0 869 862" fill="none" xmlns="http://www.w3.org/2000/svg">
<path d="M774.285 216.22C797.995 213.637 817.113 222.073 828.185 244.077C876.598 340.274 879.574 451.616 849.572 553.738C816.643 662.649 742.43 754.364 642.786 809.288C564.049 851.189 474.606 868.66 385.889 859.466C352.102 855.843 326.678 849.788 294.488 840.273C284.278 837.074 273.233 833.423 263.876 827.992C226.989 807.192 239.431 748.757 281.892 746.587C296.83 745.826 323.11 757.731 338.867 761.648C489.827 799.159 646.633 740.077 728.351 606.07C784.419 514.127 796.456 401.415 755.862 300.884C747.142 279.499 730.214 258.08 746.155 234.868C753.185 224.517 762.258 218.552 774.285 216.22Z" fill="#020202"/>
<path d="M402.647 0.986355C463.79 0.177602 518.596 7.61945 576.004 30.0992C588.215 34.8646 598.839 38.542 610.177 45.3337C649.437 68.8546 629.375 131.763 584.601 129.694C566.672 128.868 543.137 115.148 524.677 109.038C380.46 61.2943 230.668 114.802 145.928 240.114C108.591 294.235 88.0641 358.176 86.9203 423.917C86.6857 433.915 86.4869 453.968 88.2719 463.204C90.6803 483.966 92.9949 503.961 99.0225 524.122C103.73 539.868 114.762 559.129 116.102 574.745C117.001 585.19 112.999 595.951 106.06 603.733C98.2093 612.538 85.1196 616.959 73.4641 617.348C62.8319 617.701 52.3561 613.947 44.702 606.474C17.8255 580.232 1.70852 487.806 0.56912 451.127C-0.257506 424.532 -0.565797 397.765 2.36761 371.277C12.486 279.912 55.0728 195.422 117.72 128.899C192.246 50.5459 294.571 4.60787 402.647 0.986355Z" fill="#020202"/>
<path d="M411.239 176.18C471.525 170.594 542.686 188.903 592.074 223.682C612.12 237.799 658.697 278.534 662.958 305.198C664.747 316.402 661.74 328.156 655.071 337.378C648.219 346.862 637.822 353.169 626.244 354.865C599.401 358.723 588.62 340.535 573.135 324.005C498.053 243.851 362.426 241.546 295.42 333.482C259.444 382.845 257.122 423.537 265.212 480.586C268.13 487.61 270.766 497.453 273.53 504.987C280.237 522.735 289.372 539.468 300.677 554.707C304.582 559.879 310.266 566.933 314.87 571.533C326.675 582.978 340.08 594.155 341.224 611.964C342.781 636.199 323.742 655.835 299.745 656.519C284.475 656.954 273.653 652.151 263.088 642.214C206.888 589.356 175.631 519.27 171.587 442.34C168.262 373.924 192.436 307.021 238.722 256.532C283.628 208.385 345.487 179.573 411.239 176.18Z" fill="#020202"/>
<path d="M429.633 346.672C483.205 341.617 530.711 380.998 535.671 434.579C540.631 488.16 501.163 535.594 447.573 540.458C394.121 545.308 346.834 505.963 341.885 452.519C336.937 399.074 376.199 351.717 429.633 346.672Z" fill="#020202"/>
<path d="M739.008 22.6216C781.166 15.8052 820.859 44.487 827.624 86.6538C834.389 128.823 805.658 168.479 763.482 175.192C721.38 181.892 681.807 153.224 675.054 111.131C668.302 69.0355 696.921 29.4267 739.008 22.6216Z" fill="#020202"/>
<path d="M108.513 663.909C150.224 656 190.427 683.476 198.209 725.211C205.99 766.945 178.392 807.063 136.634 814.719C95.0548 822.342 55.1466 794.887 47.3987 753.332C39.6485 711.775 66.9808 671.784 108.513 663.909Z" fill="#020202"/>
</svg>
