<svg width="1417" height="371" viewBox="0 0 1417 371" fill="none" xmlns="http://www.w3.org/2000/svg">
<path d="M787.838 1.07091C808.165 0.833586 828.491 0.827745 848.818 1.0534C848.036 58.7455 849.199 117.595 848.755 175.571C862.184 161.577 877.243 148.775 897.799 148.938C963.439 149.459 954.415 231.96 954.417 276.107L954.66 363.986L893.642 364.119L893.797 294.154C893.879 272.555 900.843 207.696 870.206 209.221C840.344 210.709 846.12 263.939 846.098 284.661C846.153 311.014 846.073 337.365 845.857 363.716L787.144 363.903C789.099 327.101 787.961 282.643 788.011 244.994L787.838 1.07091Z" fill="#4790FE"/>
<path d="M0 1.39774L62.7908 1.27515L63.0592 364.582C59.1667 365.039 46.1273 364.802 41.7834 364.809L0.182848 364.854L0 1.39774Z" fill="#4790FE"/>
<path d="M585.592 1.20696L646.822 1.07861L646.474 361.856C642.111 364.621 595.172 363.545 585.922 363.537L585.592 1.20696Z" fill="#4790FE"/>
<path d="M716.622 150.358C737.293 147.386 758.332 156.054 776.273 165.17C776.168 181.602 775.339 210.307 777.108 225.575C770.385 220.551 725.197 183.426 722.684 217.664C721.806 229.61 751.764 242.544 760.999 251.234C773.347 262.027 780.352 277.496 781.271 293.998C783.702 337.721 757.612 367.976 713.796 370.404C691.51 369.021 674.839 364.169 656.267 351.307C655.683 330.278 655.806 308.49 655.654 287.403C668.326 298.332 686.682 315.976 704.952 314.873C712.519 314.416 720.783 309.391 718.849 300.67C716.241 289.578 702.96 281.373 693.253 275.364C651.135 249.289 647.289 186.309 690.045 159.223C698.377 153.945 706.52 151.91 716.622 150.358Z" fill="#4790FE"/>
<path d="M162.219 149.519C167.222 149.159 173.753 149.808 178.711 150.617C225.331 158.241 253.071 196.139 260.01 240.523C261.249 234.728 262.559 229.03 263.993 223.416C276.252 175.443 318.532 142.047 368.81 151.184C376.881 152.651 383.505 154.435 391.36 156.709C391.056 176.508 391.284 196.312 392.042 216.099C301.208 168.897 298.376 349.631 391.391 301.201C391.239 320.989 391.235 340.776 391.385 360.566C388.156 362.21 384.1 363.754 380.696 365.169C378.556 365.898 376.381 366.521 374.179 367.033C351.312 372.56 327.075 370.246 307.17 357.329C277.396 338.006 267.311 311.499 259.926 278.873C255.971 300.699 249.36 319.732 235.027 336.905C219.132 356.284 196.05 368.381 171.069 370.418C113.184 375.437 72.6596 327.146 69.2397 272.076C65.4873 211.68 96.4523 153.482 162.219 149.519ZM164.4 214.326C147.555 214.326 133.9 234.921 133.9 260.326C133.9 285.731 147.555 306.326 164.4 306.326C181.244 306.326 194.9 285.731 194.9 260.326C194.9 234.921 181.245 214.326 164.4 214.326Z" fill="#4790FE"/>
<path d="M1248.92 148.409C1251.95 148.101 1252.38 148.158 1255.44 148.442C1257.99 151.334 1256.88 207.354 1256.85 215.502C1276.14 160.514 1336.32 123.412 1386.52 169.94C1415.68 196.968 1416.52 238.391 1416.57 275.873C1383.49 277.688 1340.3 275.644 1306.03 275.985C1317.91 319.587 1351.82 315.15 1380.55 289.384C1392.07 303.48 1402.83 313.443 1414.61 326.72C1410.45 331.966 1405.91 336.896 1401.02 341.471C1380.03 360.763 1360.31 367.027 1332.34 365.893C1270.9 356.898 1244.77 303.958 1250.39 246.074C1250.86 241.22 1255.69 216.78 1254.88 215.135C1253.49 214.526 1252.52 214.192 1250.94 214.207C1202.03 214.717 1206.81 263.021 1206.64 300.135L1206.46 363.136L1149.15 363.075C1148.85 295.16 1148.35 225.183 1149.24 157.332C1168.11 157.023 1187.46 157.229 1206.37 157.223L1206.48 179.447C1219.03 162.289 1227.23 153.033 1248.92 148.409ZM1338.4 202.326C1329.78 202.326 1321.51 206.487 1315.42 213.895C1309.32 221.302 1305.9 231.35 1305.9 241.826H1370.9C1370.9 231.35 1367.48 221.302 1361.38 213.895C1355.29 206.488 1347.02 202.326 1338.4 202.326Z" fill="#4790FE"/>
<path d="M1026.64 150.399C1053.37 148.037 1066.41 160.433 1082.43 179.09L1082.68 157.482C1100.54 157.003 1119.29 157.204 1137.21 157.122L1136.99 363.138C1126.83 363.179 1090.38 363.876 1082.76 362.545C1081.2 359.254 1081.68 354.925 1081.7 351.157C1081.87 347.858 1082.25 348.955 1081.04 346.214C1077.43 347.146 1064.79 366.77 1043.93 368.828C1027.88 371.003 1009.97 368.325 996.914 357.758C945.07 315.788 946.006 159.304 1026.64 150.399ZM1035.4 214.326C1018.56 214.327 1004.9 234.921 1004.9 260.326C1004.9 285.731 1018.56 306.326 1035.4 306.326C1052.24 306.326 1065.9 285.731 1065.9 260.326C1065.9 234.921 1052.24 214.326 1035.4 214.326Z" fill="#4790FE"/>
<path d="M462.745 149.401C488.674 147.156 499.134 157.262 514.734 175.24L514.677 156.34L574.029 156.566L573.675 363.352C563.256 363.412 523.673 364.247 515.761 362.8C514.283 360.314 514.671 356.206 514.657 353.102L514.531 350.264L513.5 349.815C492.267 374.148 460.345 376.271 434.995 357.574C412.327 340.858 400.974 313.179 396.99 285.719C390.537 241.233 399.178 176.847 444.265 154.256C450.011 151.377 456.456 150.295 462.745 149.401ZM467.4 213.326C450.555 213.326 436.9 233.921 436.9 259.326C436.9 284.731 450.555 305.326 467.4 305.326C484.244 305.326 497.899 284.731 497.9 259.326C497.9 233.921 484.244 213.326 467.4 213.326Z" fill="#4790FE"/>
</svg>
