<svg width="1418" height="370" viewBox="0 0 1418 370" fill="none" xmlns="http://www.w3.org/2000/svg">
<path d="M788.976 0.619548C809.309 0.38279 829.642 0.376963 849.975 0.602077C849.192 58.1556 850.356 116.864 849.912 174.701C863.345 160.74 878.408 147.968 898.97 148.131C964.631 148.652 955.604 230.954 955.606 274.995L955.849 362.663L894.812 362.795L894.968 292.998C895.049 271.451 902.016 206.748 871.37 208.27C841.498 209.755 847.276 262.856 847.254 283.528C847.309 309.818 847.229 336.106 847.013 362.394L788.282 362.58C790.237 325.867 789.099 281.516 789.15 243.956L788.976 0.619548Z" fill="black"/>
<path d="M0.899902 0.945587L63.7097 0.82329L63.9782 363.257C60.0845 363.713 47.0411 363.477 42.6959 363.484L1.08281 363.529L0.899902 0.945587Z" fill="black"/>
<path d="M586.669 0.755269L647.918 0.627228L647.57 360.538C643.205 363.296 596.252 362.223 587 362.215L586.669 0.755269Z" fill="black"/>
<path d="M717.739 149.548C738.416 146.583 759.461 155.23 777.408 164.324C777.303 180.717 776.474 209.353 778.243 224.585C771.518 219.572 726.317 182.537 723.802 216.692C722.925 228.61 752.892 241.513 762.129 250.182C774.481 260.948 781.489 276.38 782.407 292.843C784.839 336.461 758.741 366.643 714.912 369.065C692.619 367.686 675.943 362.846 657.365 350.014C656.782 329.036 656.904 307.301 656.752 286.264C669.428 297.167 687.79 314.768 706.066 313.668C713.635 313.212 721.901 308.199 719.967 299.499C717.358 288.434 704.073 280.248 694.363 274.254C652.232 248.241 648.385 185.413 691.154 158.391C699.488 153.127 707.634 151.097 717.739 149.548Z" fill="black"/>
<path d="M163.168 148.711C168.173 148.352 174.705 148.998 179.665 149.806C226.299 157.411 254.047 195.219 260.989 239.496C262.228 233.715 263.538 228.031 264.972 222.431C277.235 174.572 319.528 141.258 369.822 150.373C377.895 151.836 384.521 153.615 392.378 155.884C392.075 175.636 392.302 195.392 393.061 215.132C302.199 168.043 299.366 348.343 392.409 300.029C392.258 319.769 392.254 339.509 392.404 359.251C389.173 360.891 385.116 362.432 381.71 363.843C379.57 364.57 377.394 365.192 375.192 365.702C352.318 371.215 328.074 368.908 308.163 356.022C278.379 336.746 268.292 310.302 260.906 277.754C256.949 299.528 250.335 318.515 235.997 335.647C220.097 354.98 197.01 367.047 172.021 369.079C114.119 374.086 73.5813 325.911 70.1604 270.974C66.4068 210.723 97.3813 152.664 163.168 148.711ZM165.35 213.362C148.5 213.362 134.84 233.908 134.84 259.252C134.84 284.596 148.5 305.142 165.35 305.142C182.199 305.141 195.859 284.596 195.859 259.252C195.859 233.908 182.199 213.363 165.35 213.362Z" fill="black"/>
<path d="M1250.2 147.604C1253.23 147.297 1253.66 147.354 1256.72 147.637C1259.27 150.523 1258.16 206.409 1258.13 214.537C1277.43 159.68 1337.62 122.666 1387.84 169.082C1417 196.046 1417.85 237.37 1417.9 274.762C1384.81 276.573 1341.6 274.533 1307.32 274.872C1319.21 318.37 1353.13 313.943 1381.86 288.24C1393.39 302.301 1404.15 312.242 1415.94 325.487C1411.78 330.721 1407.23 335.638 1402.34 340.203C1381.34 359.448 1361.62 365.697 1333.64 364.566C1272.18 355.592 1246.04 302.779 1251.67 245.034C1252.14 240.192 1256.97 215.809 1256.16 214.169C1254.77 213.562 1253.8 213.228 1252.22 213.244C1203.29 213.752 1208.08 261.941 1207.9 298.966L1207.72 361.816L1150.39 361.753C1150.1 294.002 1149.59 224.193 1150.48 156.505C1169.37 156.197 1188.72 156.403 1207.64 156.397L1207.74 178.567C1220.3 161.45 1228.5 152.217 1250.2 147.604ZM1339.7 201.391C1331.08 201.391 1322.81 205.543 1316.72 212.933C1310.62 220.323 1307.19 230.345 1307.19 240.796H1372.22C1372.22 230.345 1368.79 220.323 1362.69 212.933C1356.6 205.543 1348.33 201.391 1339.7 201.391Z" fill="black"/>
<path d="M1027.85 149.589C1054.59 147.233 1067.63 159.599 1083.66 178.211L1083.9 156.655C1101.77 156.177 1120.53 156.378 1138.46 156.296L1138.23 361.818C1128.07 361.858 1091.61 362.553 1083.99 361.226C1082.43 357.942 1082.9 353.623 1082.93 349.864C1083.1 346.574 1083.47 347.668 1082.27 344.934C1078.65 345.864 1066.01 365.44 1045.14 367.493C1029.09 369.663 1011.17 366.991 998.116 356.449C946.256 314.58 947.192 158.474 1027.85 149.589ZM1036.61 213.363C1019.76 213.363 1006.1 233.908 1006.1 259.252C1006.1 284.596 1019.76 305.141 1036.61 305.142C1053.46 305.142 1067.12 284.596 1067.12 259.252C1067.12 233.908 1053.46 213.363 1036.61 213.363Z" fill="black"/>
<path d="M463.785 148.593C489.722 146.354 500.185 156.435 515.789 174.371L515.733 155.515L575.102 155.741L574.748 362.031C564.325 362.091 524.732 362.923 516.817 361.479C515.338 358.999 515.727 354.903 515.714 351.805L515.587 348.974L514.555 348.526C493.316 372.801 461.384 374.918 436.027 356.267C413.352 339.591 401.995 311.978 398.01 284.584C391.555 240.205 400.199 175.974 445.299 153.437C451.047 150.565 457.494 149.486 463.785 148.593ZM468.441 212.365C451.591 212.365 437.932 232.91 437.932 258.254C437.932 283.598 451.591 304.144 468.441 304.144C485.291 304.144 498.951 283.598 498.951 258.254C498.951 232.91 485.291 212.365 468.441 212.365Z" fill="black"/>
</svg>
